<svg xmlns="http://www.w3.org/2000/svg" data-name="Layer 1" viewBox="0 0 30.08 30"><g><path d="M13.5,26H.5a.47.47,0,0,1-.5-.5v-10a7.22,7.22,0,0,1,7-7,7.22,7.22,0,0,1,7,7v10A.47.47,0,0,1,13.5,26ZM1,25H13V15.5a6.15,6.15,0,0,0-6-6,6.15,6.15,0,0,0-6,6Z"></path><path d="M29.5,18a.47.47,0,0,1-.5-.5v-8a6.15,6.15,0,0,0-6-6,.47.47,0,0,1-.5-.5.47.47,0,0,1,.5-.5,7.22,7.22,0,0,1,7,7v8A.47.47,0,0,1,29.5,18Z"></path><path d="M6.5,9.5A.55.55,0,0,1,6,9.2a.42.42,0,0,1,.3-.6l6.5-2.3a.42.42,0,0,1,.6.3.42.42,0,0,1-.3.6L6.7,9.5Z"></path><path d="M13.5,26c-.2,0-.4-.1-.4-.3a.66.66,0,0,1,.2-.7l16-8a.66.66,0,0,1,.7.2c.2.2,0,.5-.2.7l-16,8A.37.37,0,0,1,13.5,26Z"></path><path d="M11.5,30a.47.47,0,0,1-.5-.5v-4a.5.5,0,0,1,1,0v4A.47.47,0,0,1,11.5,30Z"></path><path d="M15.5,30a.47.47,0,0,1-.5-.5v-5a.5.5,0,0,1,1,0v5A.47.47,0,0,1,15.5,30Z"></path><path d="M18.5,30a.47.47,0,0,1-.5-.5V23a.5.5,0,0,1,1,0v6.5A.47.47,0,0,1,18.5,30Z"></path><path d="M15.5,16a.47.47,0,0,1-.5-.5V5.5h0v-4a.66.66,0,0,1,.4-.5l5-1a.6.6,0,0,1,.4.1.52.52,0,0,1,.2.4v4a.66.66,0,0,1-.4.5L16,5.9v9.6A.47.47,0,0,1,15.5,16ZM16,1.9v3l4-.8v-3Z"></path><path d="M8.5,23a.37.37,0,0,1-.3-.1.52.52,0,0,1-.2-.4v-7c0-.2.1-.4.3-.4l2-1a.66.66,0,0,1,.7.2.66.66,0,0,1-.2.7L9,15.8v5.9l1.3-.6a.66.66,0,0,1,.7.2.66.66,0,0,1-.2.7l-2,1Z"></path><path d="M3.5,23a.37.37,0,0,1-.3-.1.52.52,0,0,1-.2-.4v-7c0-.2.1-.4.3-.4l2-1a.66.66,0,0,1,.7.2.66.66,0,0,1-.2.7L4,15.8v5.9l1.3-.6a.66.66,0,0,1,.7.2c.2.2,0,.5-.2.7l-2,1Z"></path></g></svg>