<svg xmlns="http://www.w3.org/2000/svg" xmlns:xlink="http://www.w3.org/1999/xlink" id="Layer_1" x="0px" y="0px" viewBox="0 0 30 30" style="enable-background:new 0 0 30 30;" xml:space="preserve">
<g>
	<g>
		<path d="M27,5.5h-4.5C22.2,5.5,22,5.7,22,6s0.2,0.5,0.5,0.5H27c1.1,0,2,0.9,2,2v17.3l-4.1-4.1c-0.1-0.1-0.2-0.1-0.4-0.1H12    c-0.6,0-1.2-0.3-1.6-0.8c-0.2-0.2-0.5-0.3-0.7-0.1c-0.2,0.2-0.3,0.5-0.1,0.7c0.6,0.8,1.4,1.2,2.4,1.2h12.3l4.9,4.9    c0.1,0.1,0.2,0.1,0.4,0.1c0.1,0,0.1,0,0.2,0c0.2-0.1,0.3-0.3,0.3-0.5V8.5C30,6.8,28.7,5.5,27,5.5z M21,16.5V5.5c0-1.6-1.3-3-3-3H3    c-1.7,0-3,1.3-3,3V24c0,0.2,0.1,0.4,0.3,0.5c0.1,0,0.1,0,0.2,0c0.1,0,0.3-0.1,0.4-0.1l4.9-4.9H18C19.7,19.5,21,18.2,21,16.5z     M5.5,18.5c-0.1,0-0.3,0.1-0.4,0.1L1,22.8V5.5c0-1.1,0.9-2,2-2v0h15c1.1,0,2,0.9,2,2v11.1c0,1.1-0.9,2-2,2H5.5z"></path>
	</g>
</g>
</svg>