<svg xmlns="http://www.w3.org/2000/svg" xmlns:xlink="http://www.w3.org/1999/xlink" id="Layer_1" x="0px" y="0px" viewBox="0 0 30 30" style="enable-background:new 0 0 30 30;" xml:space="preserve"><g><path d="M22.4,13.1V0.5c0-0.2-0.1-0.4-0.3-0.5s-0.4,0-0.5,0.1L11.7,9H7.9c-3.6,0-6.5,2.7-6.5,6s2.9,6,6.5,6h3.8l9.9,8.9&#10;&#9;&#9;c0.1,0.1,0.2,0.1,0.3,0.1s0.1,0,0.2,0c0.2-0.1,0.3-0.3,0.3-0.5V16.9c0.9-0.2,1.5-1,1.5-1.9S23.4,13.3,22.4,13.1z M11.4,20H7.9&#10;&#9;&#9;c-3,0-5.5-2.3-5.5-5s2.5-5,5.5-5h3.5V20z M21.9,16c-0.3,0-0.5,0.2-0.5,0.5v11.9l-9-8.1V9.7l9-8.1v11.9c0,0.3,0.2,0.5,0.5,0.5&#10;&#9;&#9;c0.6,0,1,0.4,1,1C22.9,15.6,22.6,16,21.9,16z"></path><path d="M24.9,11.5c-0.2-0.2-0.5-0.2-0.7,0s-0.2,0.5,0,0.7C25,13,25.4,14,25.4,15s-0.4,2.1-1.2,2.8c-0.2,0.2-0.2,0.5,0,0.7&#10;&#9;&#9;c0.1,0.1,0.2,0.1,0.4,0.1s0.3,0,0.4-0.1c0.9-0.9,1.5-2.2,1.5-3.5S25.9,12.4,24.9,11.5z"></path><path d="M26.4,10c-0.2-0.2-0.5-0.2-0.7,0s-0.2,0.5,0,0.7c1.1,1.1,1.8,2.6,1.8,4.2s-0.6,3.1-1.8,4.2c-0.2,0.2-0.2,0.5,0,0.7&#10;&#9;&#9;c0.1,0.1,0.2,0.1,0.4,0.1s0.3,0,0.4-0.1c1.3-1.3,2.1-3.1,2.1-4.9C28.6,13.1,27.7,11.4,26.4,10z"></path><path d="M6.9,11c-0.3,0-0.5,0.2-0.5,0.5v3c0,0.3,0.2,0.5,0.5,0.5s0.5-0.2,0.5-0.5v-3C7.4,11.2,7.2,11,6.9,11z"></path></g></svg>